# xmcd
#
# Track frame offsets:
#	150
#	11505
#	21085
#	33287
#	45040
#	58542
#	71690
#	86097
#	94962
#	106817
#	117187
#	130630
#
# Disc length: 1947
#
# Revision: 1
# Processed by: cddbd v1.5.1PL0 Copyright (c) Steve Scherf et al.
# Submitted via: FreeRIP 2.00 
# Normalized: r0:TDELIM( - )
#
DISCID=8b07990c
DTITLE=20th Century Masters - The Best of Bluegrass - The Millenium Collection
DYEAR=2002
DGENRE=Bluegrass
TTITLE0=Ricky Skaggs - Hallelujah I'm Ready
TTITLE1=Bill Monroe and The Blue Grass Boys - Blue Moon of Kentucky
TTITLE2=Lester Flatt and Earl Scruggs - Foggy Mountain Breakdown
TTITLE3=The Osborne Brothers - Rocky Top
TTITLE4=Jimmy Martin - Widow Maker
TTITLE5=The Stanley Brothers - Who Will Call You Sweetheart
TTITLE6=Bill Monroe and The Blue Grass Boys - In The Pines
TTITLE7=The Stonemans - Shady Grove
TTITLE8=Lester Flatt and Earl Scruggs - Roll In My Sweet Baby's Arms
TTITLE9=The Stanley Brothers - Angel Band
TTITLE10=The Osborne Brothers and Red Allen - Ruby, Are You Mad
TTITLE11=Vince Gill - High Lonesome Sound
EXTD=
EXTT0=
EXTT1=
EXTT2=
EXTT3=
EXTT4=
EXTT5=
EXTT6=
EXTT7=
EXTT8=
EXTT9=
EXTT10=
EXTT11=
PLAYORDER=
